<?xml version="1.0" encoding="UTF-8"?>
<svg xmlns="http://www.w3.org/2000/svg" xmlns:xlink="http://www.w3.org/1999/xlink" width="841.8898pt" height="595.2756pt" viewBox="0 0 841.8898 595.2756" version="1.1">
<g id="surface1">
<path style=" stroke:none;fill-rule:nonzero;fill:rgb(16.862488%,16.862488%,16.470337%);fill-opacity:1;" d="M 221.269531 302.402344 L 227.71875 306.042969 C 225.289062 310.597656 221.800781 314.300781 217.222656 317.132812 C 212.667969 319.941406 207.644531 321.367188 202.175781 321.367188 C 194.277344 321.367188 187.46875 318.492188 181.742188 312.769531 C 176.015625 307.019531 173.144531 300.210938 173.144531 292.335938 C 173.144531 284.269531 176.015625 277.414062 181.742188 271.753906 C 187.46875 266.113281 194.277344 263.28125 202.175781 263.28125 C 207.199219 263.28125 211.921875 264.535156 216.351562 267.050781 C 220.800781 269.558594 224.226562 272.753906 226.632812 276.605469 L 189.128906 309.660156 C 192.894531 312.535156 197.238281 313.960938 202.175781 313.960938 C 206.304688 313.960938 210.03125 312.9375 213.390625 310.875 C 216.753906 308.808594 219.375 306 221.269531 302.402344 Z M 184.167969 304.425781 L 216.285156 275.925781 C 212.265625 272.433594 207.558594 270.6875 202.175781 270.6875 C 196.085938 270.6875 190.957031 272.773438 186.785156 276.925781 C 182.613281 281.097656 180.527344 286.226562 180.527344 292.335938 C 180.527344 296.71875 181.742188 300.742188 184.167969 304.425781 "/>
<path style=" stroke:none;fill-rule:nonzero;fill:rgb(16.862488%,16.862488%,16.470337%);fill-opacity:1;" d="M 312.003906 319.75 L 304.617188 319.75 L 304.617188 284.671875 C 304.617188 280.457031 303.214844 277.074219 300.445312 274.519531 C 297.660156 271.964844 294.402344 270.6875 290.632812 270.6875 C 286.953125 270.6875 283.695312 271.964844 280.886719 274.519531 C 278.054688 277.074219 276.652344 280.457031 276.652344 284.671875 L 276.652344 319.75 L 269.265625 319.75 L 269.265625 284.671875 C 269.265625 280.457031 267.859375 277.074219 265.09375 274.519531 C 262.304688 271.964844 259.046875 270.6875 255.28125 270.6875 C 251.597656 270.6875 248.339844 271.964844 245.53125 274.519531 C 242.703125 277.074219 241.296875 280.457031 241.296875 284.671875 L 241.296875 319.75 L 233.890625 319.75 L 233.890625 264.769531 L 240.082031 269.601562 C 244.296875 265.386719 249.363281 263.28125 255.28125 263.28125 C 258.855469 263.28125 262.261719 264.132812 265.496094 265.835938 C 268.710938 267.539062 271.222656 269.792969 273.011719 272.5625 C 277.308594 266.390625 283.183594 263.28125 290.632812 263.28125 C 293.761719 263.28125 296.617188 263.878906 299.167969 265.027344 C 301.722656 266.199219 303.917969 267.707031 305.746094 269.539062 C 307.597656 271.371094 309.089844 273.582031 310.257812 276.136719 C 311.429688 278.691406 312.003906 281.523438 312.003906 284.671875 Z M 312.003906 319.75 "/>
<path style=" stroke:none;fill-rule:nonzero;fill:rgb(16.862488%,16.862488%,16.470337%);fill-opacity:1;" d="M 368.046875 312.363281 C 362.238281 318.367188 355.234375 321.367188 347.082031 321.367188 C 339.183594 321.367188 332.375 318.492188 326.648438 312.769531 C 320.921875 307.019531 318.050781 300.210938 318.050781 292.335938 C 318.050781 284.269531 320.921875 277.414062 326.648438 271.753906 C 332.375 266.113281 339.183594 263.28125 347.082031 263.28125 C 355.234375 263.28125 362.238281 266.28125 368.046875 272.304688 L 376.113281 264.769531 L 376.113281 319.75 Z M 347.082031 270.6875 C 340.996094 270.6875 335.863281 272.773438 331.691406 276.925781 C 327.519531 281.097656 325.433594 286.226562 325.433594 292.335938 C 325.433594 298.421875 327.519531 303.550781 331.691406 307.722656 C 335.863281 311.894531 340.996094 313.960938 347.082031 313.960938 C 353.085938 313.960938 358.191406 311.851562 362.40625 307.660156 C 366.621094 303.445312 368.726562 298.335938 368.726562 292.335938 C 368.726562 286.3125 366.621094 281.203125 362.40625 277.011719 C 358.191406 272.796875 353.085938 270.6875 347.082031 270.6875 "/>
<path style=" stroke:none;fill-rule:nonzero;fill:rgb(16.862488%,16.862488%,16.470337%);fill-opacity:1;" d="M 460.003906 338.082031 L 452.617188 338.082031 L 452.617188 303.003906 C 452.617188 298.792969 451.210938 295.40625 448.445312 292.851562 C 445.65625 290.300781 442.398438 289.023438 438.632812 289.023438 C 434.949219 289.023438 431.699219 290.304688 428.882812 292.851562 C 426.058594 295.414062 424.648438 298.792969 424.648438 303.003906 L 424.648438 318.332031 L 417.261719 318.332031 L 417.261719 303.003906 C 417.261719 298.792969 415.863281 295.402344 413.089844 292.851562 C 410.308594 290.292969 407.046875 289.023438 403.277344 289.023438 C 399.597656 289.023438 396.339844 290.300781 393.53125 292.851562 C 390.699219 295.40625 389.292969 298.792969 389.292969 303.003906 L 389.292969 338.082031 L 381.886719 338.082031 L 381.886719 283.105469 L 388.082031 287.9375 C 392.296875 283.722656 397.363281 281.613281 403.277344 281.613281 C 406.855469 281.613281 410.261719 282.464844 413.496094 284.167969 C 416.710938 285.871094 419.222656 288.128906 421.007812 290.894531 C 425.308594 284.722656 431.183594 281.613281 438.632812 281.613281 C 441.761719 281.613281 444.613281 282.210938 447.167969 283.359375 C 449.722656 284.53125 451.914062 286.042969 453.746094 287.871094 C 455.597656 289.703125 457.085938 291.917969 458.257812 294.46875 C 459.425781 297.023438 460.003906 299.855469 460.003906 303.003906 Z M 460.003906 338.082031 "/>
<path style=" stroke:none;fill-rule:nonzero;fill:rgb(16.862488%,16.862488%,16.470337%);fill-opacity:1;" d="M 513.902344 302.402344 L 520.351562 306.042969 C 517.925781 310.597656 514.433594 314.300781 509.855469 317.132812 C 505.300781 319.941406 500.277344 321.367188 494.808594 321.367188 C 486.914062 321.367188 480.101562 318.492188 474.375 312.769531 C 468.648438 307.019531 465.777344 300.210938 465.777344 292.335938 C 465.777344 284.269531 468.648438 277.414062 474.375 271.753906 C 480.101562 266.113281 486.914062 263.28125 494.808594 263.28125 C 499.832031 263.28125 504.558594 264.535156 508.984375 267.050781 C 513.433594 269.558594 516.859375 272.753906 519.265625 276.605469 L 481.761719 309.660156 C 485.527344 312.535156 489.871094 313.960938 494.808594 313.960938 C 498.9375 313.960938 502.664062 312.9375 506.027344 310.875 C 509.390625 308.808594 512.007812 306 513.902344 302.402344 Z M 476.800781 304.425781 L 508.921875 275.925781 C 504.898438 272.433594 500.195312 270.6875 494.808594 270.6875 C 488.722656 270.6875 483.59375 272.773438 479.421875 276.925781 C 475.25 281.097656 473.164062 286.226562 473.164062 292.335938 C 473.164062 296.71875 474.375 300.742188 476.800781 304.425781 "/>
<path style=" stroke:none;fill-rule:nonzero;fill:rgb(16.862488%,16.862488%,16.470337%);fill-opacity:1;" d="M 604.636719 319.75 L 597.253906 319.75 L 597.253906 284.671875 C 597.253906 280.457031 595.847656 277.074219 593.082031 274.519531 C 590.292969 271.964844 587.035156 270.6875 583.269531 270.6875 C 579.585938 270.6875 576.328125 271.964844 573.519531 274.519531 C 570.6875 277.074219 569.285156 280.457031 569.285156 284.671875 L 569.285156 319.75 L 561.898438 319.75 L 561.898438 284.671875 C 561.898438 280.457031 560.492188 277.074219 557.726562 274.519531 C 554.9375 271.964844 551.679688 270.6875 547.914062 270.6875 C 544.230469 270.6875 540.976562 271.964844 538.164062 274.519531 C 535.335938 277.074219 533.929688 280.457031 533.929688 284.671875 L 533.929688 319.75 L 526.523438 319.75 L 526.523438 264.769531 L 532.71875 269.601562 C 536.929688 265.386719 541.996094 263.28125 547.914062 263.28125 C 551.488281 263.28125 554.894531 264.132812 558.132812 265.835938 C 561.34375 267.539062 563.855469 269.792969 565.644531 272.5625 C 569.945312 266.390625 575.820312 263.28125 583.269531 263.28125 C 586.398438 263.28125 589.25 263.878906 591.804688 265.027344 C 594.359375 266.199219 596.550781 267.707031 598.378906 269.539062 C 600.230469 271.371094 601.722656 273.582031 602.894531 276.136719 C 604.0625 278.691406 604.636719 281.523438 604.636719 284.671875 Z M 604.636719 319.75 "/>
<path style=" stroke:none;fill-rule:nonzero;fill:rgb(16.862488%,16.862488%,16.470337%);fill-opacity:1;" d="M 660.679688 312.363281 C 654.871094 318.367188 647.867188 321.367188 639.714844 321.367188 C 631.820312 321.367188 625.007812 318.492188 619.28125 312.769531 C 613.554688 307.019531 610.683594 300.210938 610.683594 292.335938 C 610.683594 284.269531 613.554688 277.414062 619.28125 271.753906 C 625.007812 266.113281 631.820312 263.28125 639.714844 263.28125 C 647.867188 263.28125 654.871094 266.28125 660.679688 272.304688 L 668.746094 264.769531 L 668.746094 319.75 Z M 639.714844 270.6875 C 633.628906 270.6875 628.496094 272.773438 624.328125 276.925781 C 620.152344 281.097656 618.070312 286.226562 618.070312 292.335938 C 618.070312 298.421875 620.152344 303.550781 624.328125 307.722656 C 628.496094 311.894531 633.628906 313.960938 639.714844 313.960938 C 645.71875 313.960938 650.824219 311.851562 655.039062 307.660156 C 659.253906 303.445312 661.363281 298.335938 661.363281 292.335938 C 661.363281 286.3125 659.253906 281.203125 655.039062 277.011719 C 650.824219 272.796875 645.71875 270.6875 639.714844 270.6875 "/>
<path style=" stroke:none;fill-rule:evenodd;fill:rgb(16.862488%,16.862488%,16.470337%);fill-opacity:1;" d="M 400.023438 232.507812 C 400.367188 232.375 400.40625 232.445312 400.683594 232.511719 L 406.425781 233.117188 C 406.625 233.164062 406.785156 233.230469 406.992188 233.183594 C 407.335938 233.101562 408.152344 232.621094 408.457031 232.441406 C 409.457031 231.863281 410.496094 231.558594 411.597656 231.117188 C 412.339844 230.824219 412.609375 230.949219 412.996094 230.285156 L 413.285156 229.808594 C 413.390625 229.671875 413.410156 229.679688 413.484375 229.582031 C 413.640625 229.378906 413.515625 229.535156 413.628906 229.34375 C 414.195312 228.554688 414.742188 227.761719 415.285156 226.960938 L 416.148438 225.804688 C 416.414062 225.484375 416.445312 225.117188 416.882812 224.886719 C 416.8125 225.347656 417.1875 227.371094 417.347656 227.871094 C 417.625 228.757812 417.484375 229.949219 417.800781 230.8125 C 417.957031 231.234375 418.960938 231.378906 419.359375 232.304688 C 419.496094 232.617188 419.433594 232.789062 419.554688 232.835938 C 419.484375 233.234375 419.46875 233.613281 419.371094 234.015625 C 419.296875 234.269531 419.242188 234.527344 419.214844 234.78125 C 419.125 234.917969 419.023438 235.050781 418.996094 235.238281 C 418.894531 235.382812 418.769531 235.632812 418.648438 235.738281 C 418.414062 235.972656 418.320312 236.289062 417.929688 236.660156 L 417.074219 237.554688 C 416.679688 237.921875 416.050781 238.363281 415.5625 238.683594 C 415.003906 239.050781 414.507812 239.402344 413.824219 239.710938 L 413.828125 239.726562 C 413.773438 239.753906 413.679688 239.785156 413.636719 239.824219 C 413.601562 239.832031 413.496094 239.863281 413.460938 239.878906 L 413.464844 239.878906 C 413.464844 239.882812 413.355469 239.933594 413.335938 239.953125 C 413.308594 239.953125 413.277344 239.980469 413.273438 239.980469 C 413.25 239.980469 413.222656 240.003906 413.207031 240.003906 C 413.15625 240.003906 412.949219 240.117188 412.910156 240.152344 C 412.707031 240.195312 412.378906 240.417969 411.671875 240.636719 C 411.226562 240.773438 410.949219 240.859375 410.523438 240.964844 C 410.082031 241.074219 409.804688 241.105469 409.359375 241.207031 C 407.746094 241.570312 406.292969 241.441406 404.9375 241.035156 C 404.726562 240.871094 404.492188 240.726562 404.242188 240.597656 C 404.019531 240.414062 403.777344 240.25 403.511719 240.105469 L 403.546875 240.089844 C 403.023438 239.207031 403.046875 238.988281 403.136719 237.917969 C 403.226562 236.800781 404.042969 237.289062 402.914062 236.007812 C 402.363281 235.378906 401.902344 234.949219 401.46875 234.207031 C 401.136719 233.640625 400.476562 233.007812 400.023438 232.507812 "/>
<path style=" stroke:none;fill-rule:evenodd;fill:rgb(16.862488%,16.862488%,16.470337%);fill-opacity:1;" d="M 413.515625 239.675781 L 413.402344 239.675781 C 413.402344 241.847656 413.425781 243.203125 413.886719 245.222656 C 414.050781 245.941406 414.226562 246.953125 414.628906 247.597656 C 414.773438 247.824219 414.859375 247.859375 415.238281 247.929688 C 416.015625 248.078125 416.226562 248.292969 416.855469 248.566406 L 417.265625 248.789062 C 417.882812 249.21875 417.84375 249.148438 418.371094 249.667969 L 419.027344 250.289062 C 419.179688 250.46875 419.242188 250.621094 419.402344 250.792969 C 419.660156 251.074219 419.835938 251.425781 420.023438 251.769531 C 420.328125 252.324219 420.605469 252.851562 420.734375 253.453125 C 421.195312 255.5625 421.222656 255.148438 421.230469 257.433594 C 421.234375 258.347656 421.054688 258.339844 421.199219 258.878906 L 421.117188 259.121094 C 420.84375 259.679688 420.6875 260.28125 420.660156 260.902344 C 420.621094 261.199219 420.59375 261.46875 420.558594 261.609375 C 420.300781 262.527344 420 263.3125 419.890625 264.234375 C 419.851562 264.539062 419.726562 264.84375 419.652344 265.097656 C 419.558594 265.417969 419.5 265.625 419.398438 265.949219 L 418.941406 267.691406 C 418.847656 268 418.757812 268.253906 418.671875 268.53125 L 418.191406 270.253906 C 417.9375 271.03125 417.519531 271.960938 417.40625 272.792969 C 417.285156 273.679688 416.769531 274.523438 416.621094 275.394531 C 416.457031 276.34375 416.164062 277.046875 415.859375 277.953125 C 415.765625 278.242188 415.777344 278.546875 415.679688 278.859375 C 415.40625 279.734375 415.140625 280.570312 414.980469 281.460938 C 414.824219 282.328125 414.507812 283.175781 414.269531 284.050781 C 414.199219 284.3125 414.191406 284.679688 414.109375 284.972656 C 413.90625 285.683594 413.492188 286.941406 413.492188 287.636719 L 413.402344 287.636719 C 413.402344 286.769531 413.601562 286.136719 413.734375 285.414062 C 413.867188 284.667969 413.972656 283.996094 414.109375 283.289062 C 414.1875 282.886719 414.152344 282.5625 414.21875 282.136719 L 414.925781 277.789062 C 414.972656 277.425781 414.964844 277.035156 415.007812 276.621094 C 415.085938 275.9375 415.273438 275.15625 415.351562 274.472656 L 415.886719 270.066406 C 415.972656 269.308594 416.117188 268.542969 416.160156 267.804688 C 416.203125 267.074219 416.378906 266.367188 416.429688 265.601562 C 416.480469 264.835938 416.609375 264.046875 416.605469 263.265625 C 416.597656 262.566406 416.816406 261.71875 416.671875 260.949219 C 416.414062 259.582031 416.832031 259.609375 416.0625 257.699219 L 414.789062 255.648438 C 414.566406 255.488281 414.171875 255.160156 413.890625 255.070312 C 413.777344 255.03125 413.679688 255.019531 413.5625 254.984375 C 412.847656 254.785156 412.753906 254.742188 412.148438 254.964844 L 411.675781 255.136719 C 411.160156 255.414062 410.75 255.75 410.347656 256.117188 C 410.078125 256.359375 410.199219 256.246094 410.023438 256.523438 C 409.671875 257.074219 409.558594 256.925781 409.253906 257.714844 C 409.128906 258.035156 408.953125 258.273438 408.816406 258.625 C 408.480469 259.488281 408.234375 260.984375 408.242188 261.839844 C 408.257812 263.480469 408.222656 265.109375 408.488281 266.523438 C 408.5625 266.917969 408.464844 267.332031 408.523438 267.730469 L 409.972656 276.332031 C 410.074219 276.765625 410.070312 276.914062 410.117188 277.390625 C 410.21875 278.421875 410.578125 279.472656 410.824219 280.503906 C 410.90625 280.851562 410.898438 281.289062 410.992188 281.613281 L 411.867188 285.191406 C 412.046875 285.890625 412.515625 287.042969 412.515625 287.699219 L 412.425781 287.699219 C 412.425781 287.421875 412.257812 287.011719 412.167969 286.785156 C 411.902344 286.089844 411.863281 285.644531 411.65625 285.019531 L 411.066406 283.308594 C 411.019531 283.167969 410.957031 283.0625 410.925781 282.894531 L 410.546875 281.550781 C 410.246094 280.742188 410.214844 280.316406 410.042969 279.777344 L 408.488281 274.496094 C 408.296875 273.644531 407.863281 272.769531 407.65625 271.925781 C 407.5625 271.539062 407.566406 271.289062 407.460938 270.964844 L 406.925781 269.21875 C 406.824219 268.90625 406.832031 268.578125 406.757812 268.304688 C 406.597656 267.703125 406.402344 267.152344 406.238281 266.542969 C 406.070312 265.929688 405.96875 265.3125 405.832031 264.699219 C 405.695312 264.109375 405.519531 263.546875 405.359375 262.90625 C 405.257812 262.496094 405.269531 262.363281 405.207031 261.914062 C 405.175781 261.679688 405.074219 261.335938 405.003906 261.023438 C 404.445312 258.582031 403.886719 255.75 404.875 253.226562 C 404.984375 252.941406 405.136719 252.675781 405.21875 252.378906 C 405.304688 252.074219 405.417969 251.875 405.589844 251.613281 C 405.890625 251.152344 406.242188 250.65625 406.65625 250.25 C 406.792969 250.113281 406.816406 250.019531 406.945312 249.878906 C 407.242188 249.558594 408.371094 248.734375 408.792969 248.5625 C 408.976562 248.488281 409.074219 248.464844 409.238281 248.371094 C 410.628906 247.5625 410.757812 248.230469 411.328125 247.238281 C 411.886719 246.265625 412.113281 244.796875 412.332031 243.691406 L 412.605469 240.652344 C 412.609375 240.394531 412.613281 240.207031 412.605469 240.066406 C 412.636719 239.890625 412.660156 239.710938 412.675781 239.53125 C 412.90625 239.511719 413.136719 239.476562 413.363281 239.429688 C 413.398438 239.445312 413.492188 239.632812 413.515625 239.675781 "/>
<path style=" stroke:none;fill-rule:evenodd;fill:rgb(16.862488%,16.862488%,16.470337%);fill-opacity:1;" d="M 412.78125 288.476562 C 412.6875 288.335938 412.609375 288.105469 412.601562 287.894531 C 412.589844 287.90625 412.570312 287.910156 412.566406 287.933594 L 412.515625 288.152344 C 411.71875 287.765625 410.722656 287.769531 410.121094 288.355469 C 409.464844 288.988281 409.6875 289.347656 409.84375 289.839844 L 415.804688 289.839844 C 415.828125 289.628906 415.960938 289.367188 415.953125 289.199219 C 415.882812 288.035156 414.199219 287.632812 413.582031 288.023438 L 413.316406 287.828125 C 413.316406 288.226562 413.125 288.308594 412.78125 288.476562 "/>
<path style=" stroke:none;fill-rule:evenodd;fill:rgb(16.862488%,16.862488%,16.470337%);fill-opacity:1;" d="M 441.867188 232.507812 C 441.523438 232.375 441.484375 232.445312 441.203125 232.511719 L 435.464844 233.117188 C 435.265625 233.164062 435.105469 233.230469 434.898438 233.183594 C 434.554688 233.101562 433.738281 232.621094 433.433594 232.441406 C 432.433594 231.863281 431.394531 231.558594 430.292969 231.117188 C 429.550781 230.824219 429.28125 230.949219 428.894531 230.285156 L 428.605469 229.808594 C 428.5 229.671875 428.480469 229.679688 428.40625 229.582031 C 428.25 229.378906 428.375 229.535156 428.261719 229.34375 C 427.695312 228.554688 427.148438 227.761719 426.605469 226.960938 L 425.742188 225.804688 C 425.476562 225.484375 425.441406 225.117188 425.003906 224.886719 C 425.078125 225.347656 424.699219 227.371094 424.542969 227.871094 C 424.265625 228.757812 424.40625 229.949219 424.089844 230.8125 C 423.933594 231.234375 422.929688 231.378906 422.527344 232.304688 C 422.394531 232.617188 422.457031 232.789062 422.335938 232.835938 C 422.40625 233.234375 422.421875 233.613281 422.519531 234.015625 C 422.59375 234.269531 422.644531 234.527344 422.675781 234.78125 C 422.765625 234.917969 422.867188 235.050781 422.890625 235.238281 C 422.992188 235.382812 423.121094 235.632812 423.242188 235.738281 C 423.476562 235.972656 423.570312 236.289062 423.960938 236.660156 L 424.816406 237.554688 C 425.210938 237.921875 425.839844 238.363281 426.328125 238.683594 C 426.886719 239.050781 427.382812 239.402344 428.066406 239.710938 L 428.058594 239.726562 C 428.117188 239.753906 428.210938 239.785156 428.253906 239.824219 C 428.289062 239.832031 428.394531 239.863281 428.429688 239.878906 L 428.425781 239.878906 C 428.425781 239.882812 428.535156 239.933594 428.554688 239.953125 C 428.582031 239.953125 428.613281 239.980469 428.617188 239.980469 C 428.636719 239.980469 428.667969 240.003906 428.683594 240.003906 C 428.734375 240.003906 428.941406 240.117188 428.976562 240.152344 C 429.183594 240.195312 429.511719 240.417969 430.21875 240.636719 C 430.664062 240.773438 430.9375 240.859375 431.367188 240.964844 C 431.804688 241.074219 432.085938 241.105469 432.53125 241.207031 C 434.144531 241.570312 435.597656 241.441406 436.949219 241.035156 C 437.164062 240.871094 437.398438 240.726562 437.648438 240.597656 C 437.867188 240.414062 438.113281 240.25 438.375 240.105469 L 438.339844 240.089844 C 438.867188 239.207031 438.839844 238.988281 438.753906 237.917969 C 438.660156 236.800781 437.84375 237.289062 438.972656 236.007812 C 439.527344 235.378906 439.984375 234.949219 440.421875 234.207031 C 440.753906 233.640625 441.414062 233.007812 441.867188 232.507812 "/>
<path style=" stroke:none;fill-rule:evenodd;fill:rgb(16.862488%,16.862488%,16.470337%);fill-opacity:1;" d="M 428.371094 239.675781 L 428.488281 239.675781 C 428.488281 241.847656 428.464844 243.203125 428.003906 245.222656 C 427.839844 245.941406 427.664062 246.953125 427.261719 247.597656 C 427.117188 247.824219 427.03125 247.859375 426.652344 247.929688 C 425.875 248.078125 425.664062 248.292969 425.03125 248.566406 L 424.625 248.789062 C 424.003906 249.21875 424.046875 249.148438 423.519531 249.667969 L 422.863281 250.289062 C 422.710938 250.46875 422.648438 250.621094 422.488281 250.792969 C 422.230469 251.074219 422.054688 251.425781 421.867188 251.769531 C 421.5625 252.324219 421.285156 252.851562 421.15625 253.453125 C 420.695312 255.5625 420.664062 255.148438 420.660156 257.433594 C 420.65625 258.347656 420.832031 258.339844 420.691406 258.878906 L 420.773438 259.121094 C 421.042969 259.679688 421.203125 260.28125 421.230469 260.902344 C 421.265625 261.199219 421.292969 261.46875 421.332031 261.609375 C 421.589844 262.527344 421.890625 263.3125 422 264.234375 C 422.035156 264.539062 422.164062 264.84375 422.238281 265.097656 C 422.332031 265.417969 422.390625 265.625 422.492188 265.949219 L 422.949219 267.691406 C 423.039062 268 423.132812 268.253906 423.21875 268.53125 L 423.699219 270.253906 C 423.953125 271.03125 424.367188 271.960938 424.484375 272.792969 C 424.605469 273.679688 425.121094 274.523438 425.269531 275.394531 C 425.433594 276.34375 425.726562 277.046875 426.03125 277.953125 C 426.125 278.242188 426.113281 278.546875 426.210938 278.859375 C 426.484375 279.734375 426.75 280.570312 426.910156 281.460938 C 427.0625 282.328125 427.382812 283.175781 427.621094 284.050781 C 427.691406 284.3125 427.699219 284.679688 427.78125 284.972656 C 427.984375 285.683594 428.398438 286.941406 428.398438 287.636719 L 428.488281 287.636719 C 428.488281 286.769531 428.285156 286.136719 428.15625 285.414062 C 428.023438 284.667969 427.917969 283.996094 427.78125 283.289062 C 427.699219 282.886719 427.734375 282.5625 427.671875 282.136719 L 426.964844 277.789062 C 426.917969 277.425781 426.925781 277.035156 426.878906 276.621094 C 426.804688 275.9375 426.613281 275.15625 426.535156 274.472656 L 426.003906 270.066406 C 425.914062 269.308594 425.773438 268.542969 425.726562 267.804688 C 425.683594 267.074219 425.511719 266.367188 425.460938 265.601562 C 425.410156 264.835938 425.277344 264.046875 425.285156 263.265625 C 425.289062 262.566406 425.074219 261.71875 425.21875 260.949219 C 425.476562 259.582031 425.058594 259.609375 425.828125 257.699219 L 427.101562 255.648438 C 427.324219 255.488281 427.71875 255.160156 427.996094 255.070312 C 428.113281 255.03125 428.210938 255.019531 428.328125 254.984375 C 429.042969 254.785156 429.132812 254.742188 429.738281 254.964844 L 430.214844 255.136719 C 430.730469 255.414062 431.136719 255.75 431.539062 256.117188 C 431.8125 256.359375 431.691406 256.246094 431.867188 256.523438 C 432.21875 257.074219 432.332031 256.925781 432.636719 257.714844 C 432.757812 258.035156 432.9375 258.273438 433.074219 258.625 C 433.410156 259.488281 433.652344 260.984375 433.648438 261.839844 C 433.632812 263.480469 433.667969 265.109375 433.402344 266.523438 C 433.328125 266.917969 433.425781 267.332031 433.367188 267.730469 L 431.917969 276.332031 C 431.816406 276.765625 431.820312 276.914062 431.773438 277.390625 C 431.671875 278.421875 431.3125 279.472656 431.066406 280.503906 C 430.984375 280.851562 430.988281 281.289062 430.898438 281.613281 L 430.023438 285.191406 C 429.84375 285.890625 429.375 287.042969 429.375 287.699219 L 429.464844 287.699219 C 429.464844 287.421875 429.632812 287.011719 429.71875 286.785156 C 429.988281 286.089844 430.023438 285.644531 430.230469 285.019531 L 430.820312 283.308594 C 430.867188 283.167969 430.933594 283.0625 430.964844 282.894531 L 431.34375 281.550781 C 431.644531 280.742188 431.675781 280.316406 431.84375 279.777344 L 433.402344 274.496094 C 433.59375 273.644531 434.027344 272.769531 434.234375 271.925781 C 434.324219 271.539062 434.324219 271.289062 434.429688 270.964844 L 434.964844 269.21875 C 435.066406 268.90625 435.058594 268.578125 435.132812 268.304688 C 435.292969 267.703125 435.488281 267.152344 435.652344 266.542969 C 435.820312 265.929688 435.917969 265.3125 436.058594 264.699219 C 436.195312 264.109375 436.371094 263.546875 436.53125 262.90625 C 436.632812 262.496094 436.621094 262.363281 436.679688 261.914062 C 436.714844 261.679688 436.8125 261.335938 436.882812 261.023438 C 437.441406 258.582031 438.003906 255.75 437.015625 253.226562 C 436.902344 252.941406 436.75 252.675781 436.667969 252.378906 C 436.585938 252.074219 436.472656 251.875 436.296875 251.613281 C 435.996094 251.152344 435.648438 250.65625 435.234375 250.25 C 435.097656 250.113281 435.074219 250.019531 434.941406 249.878906 C 434.648438 249.558594 433.519531 248.734375 433.097656 248.5625 C 432.914062 248.488281 432.816406 248.464844 432.652344 248.371094 C 431.261719 247.5625 431.132812 248.230469 430.5625 247.238281 C 430 246.265625 429.777344 244.796875 429.558594 243.691406 L 429.285156 240.652344 C 429.277344 240.394531 429.273438 240.207031 429.285156 240.066406 C 429.253906 239.890625 429.230469 239.710938 429.214844 239.53125 C 428.984375 239.511719 428.753906 239.476562 428.527344 239.429688 C 428.492188 239.445312 428.398438 239.632812 428.371094 239.675781 "/>
<path style=" stroke:none;fill-rule:evenodd;fill:rgb(16.862488%,16.862488%,16.470337%);fill-opacity:1;" d="M 429.109375 288.476562 C 429.203125 288.335938 429.28125 288.105469 429.285156 287.894531 C 429.296875 287.90625 429.320312 287.910156 429.324219 287.933594 L 429.375 288.152344 C 430.171875 287.765625 431.167969 287.769531 431.769531 288.355469 C 432.421875 288.988281 432.199219 289.347656 432.042969 289.839844 L 426.085938 289.839844 C 426.0625 289.628906 425.929688 289.367188 425.9375 289.199219 C 426.007812 288.035156 427.691406 287.632812 428.308594 288.023438 L 428.574219 287.828125 C 428.574219 288.226562 428.765625 288.308594 429.109375 288.476562 "/>
<path style=" stroke:none;fill-rule:nonzero;fill:rgb(16.862488%,16.862488%,16.470337%);fill-opacity:1;" d="M 381.886719 338.082031 L 389.273438 338.082031 L 389.273438 303.003906 C 389.273438 298.792969 390.679688 295.40625 393.445312 292.851562 C 396.234375 290.300781 399.488281 289.023438 403.257812 289.023438 C 406.941406 289.023438 410.191406 290.304688 413.003906 292.851562 C 415.832031 295.414062 417.242188 298.792969 417.242188 303.003906 L 417.242188 318.332031 L 424.628906 318.332031 L 424.628906 303.003906 C 424.628906 298.792969 426.027344 295.402344 428.800781 292.851562 C 431.582031 290.292969 434.84375 289.023438 438.609375 289.023438 C 442.292969 289.023438 445.550781 290.300781 448.359375 292.851562 C 451.191406 295.40625 452.59375 298.792969 452.59375 303.003906 L 452.59375 338.082031 L 460.003906 338.082031 L 460.003906 283.105469 L 453.808594 287.9375 C 449.59375 283.722656 444.527344 281.613281 438.609375 281.613281 C 435.035156 281.613281 431.628906 282.464844 428.394531 284.167969 C 425.179688 285.871094 422.667969 288.128906 420.882812 290.894531 C 416.582031 284.722656 410.707031 281.613281 403.257812 281.613281 C 400.128906 281.613281 397.277344 282.210938 394.722656 283.359375 C 392.167969 284.53125 389.976562 286.042969 388.144531 287.871094 C 386.292969 289.703125 384.804688 291.917969 383.632812 294.46875 C 382.460938 297.023438 381.886719 299.855469 381.886719 303.003906 Z M 381.886719 338.082031 "/>
<path style=" stroke:none;fill-rule:nonzero;fill:rgb(16.862488%,16.862488%,16.470337%);fill-opacity:1;" d="M 358.414062 367.050781 C 357.164062 367.867188 355.941406 368.347656 354.644531 368.347656 C 352.582031 368.347656 351.355469 367.246094 351.019531 365.109375 L 358.605469 365.109375 C 358.605469 361.125 356.78125 359.179688 353.925781 359.179688 C 350.949219 359.179688 348.886719 361.386719 348.886719 364.652344 C 348.886719 367.628906 350.757812 370.386719 354.117188 370.386719 C 355.941406 370.386719 357.117188 369.980469 358.414062 369.117188 Z M 351.070312 363.691406 C 351.355469 361.988281 352.339844 361.027344 353.972656 361.027344 C 355.484375 361.027344 356.421875 362.058594 356.492188 363.691406 Z M 351.070312 363.691406 "/>
<path style=" stroke:none;fill-rule:nonzero;fill:rgb(16.862488%,16.862488%,16.470337%);fill-opacity:1;" d="M 360.8125 359.398438 L 360.8125 370.171875 L 362.949219 370.171875 L 362.949219 362.347656 C 363.835938 361.316406 364.558594 360.980469 365.636719 360.980469 C 366.691406 360.980469 367.582031 361.722656 367.582031 363.476562 L 367.582031 370.171875 L 369.71875 370.171875 L 369.71875 362.347656 C 370.484375 361.554688 371.421875 360.957031 372.117188 360.980469 C 373.339844 360.980469 374.347656 361.867188 374.347656 363.5 L 374.347656 370.171875 L 376.484375 370.171875 L 376.484375 363.40625 C 376.484375 360.859375 375.09375 359.179688 372.910156 359.179688 C 371.371094 359.179688 370.246094 360.066406 369.308594 361.125 C 368.589844 359.851562 367.460938 359.179688 366.09375 359.179688 C 365.085938 359.179688 364.050781 359.707031 362.949219 360.8125 L 362.949219 359.398438 Z M 360.8125 359.398438 "/>
<path style=" stroke:none;fill-rule:nonzero;fill:rgb(16.862488%,16.862488%,16.470337%);fill-opacity:1;" d="M 387.765625 368.253906 C 387.285156 368.613281 386.851562 368.828125 386.636719 368.828125 C 386.371094 368.828125 386.230469 368.683594 386.230469 368.277344 L 386.230469 362.730469 C 386.230469 360.285156 384.5 359.179688 382.316406 359.179688 C 380.757812 359.179688 379.582031 359.660156 378.742188 360.644531 L 378.742188 362.972656 C 379.773438 361.75 380.972656 361.195312 382.148438 361.195312 C 383.445312 361.195312 384.09375 361.75 384.09375 363.09375 L 384.09375 363.667969 L 382.195312 364.339844 C 380.46875 364.964844 378.523438 365.613281 378.523438 367.75 C 378.523438 369.140625 379.582031 370.386719 381.164062 370.386719 C 382.148438 370.386719 383.132812 370.027344 384.070312 369.285156 C 384.261719 370.050781 384.765625 370.386719 385.699219 370.386719 C 386.371094 370.386719 386.78125 370.195312 387.765625 369.546875 Z M 384.09375 367.988281 C 383.515625 368.539062 382.894531 368.875 382.222656 368.875 C 381.332031 368.875 380.683594 368.253906 380.683594 367.363281 C 380.683594 366.09375 382.269531 365.46875 384.09375 364.84375 Z M 384.09375 367.988281 "/>
<path style=" stroke:none;fill-rule:nonzero;fill:rgb(16.862488%,16.862488%,16.470337%);fill-opacity:1;" d="M 389.566406 359.398438 L 389.566406 370.171875 L 391.699219 370.171875 L 391.699219 362.347656 C 392.589844 361.316406 393.308594 360.980469 394.390625 360.980469 C 395.445312 360.980469 396.332031 361.722656 396.332031 363.476562 L 396.332031 370.171875 L 398.46875 370.171875 L 398.46875 362.347656 C 399.238281 361.554688 400.171875 360.957031 400.867188 360.980469 C 402.09375 360.980469 403.101562 361.867188 403.101562 363.5 L 403.101562 370.171875 L 405.238281 370.171875 L 405.238281 363.40625 C 405.238281 360.859375 403.84375 359.179688 401.660156 359.179688 C 400.125 359.179688 398.996094 360.066406 398.0625 361.125 C 397.339844 359.851562 396.214844 359.179688 394.84375 359.179688 C 393.835938 359.179688 392.804688 359.707031 391.699219 360.8125 L 391.699219 359.398438 Z M 389.566406 359.398438 "/>
<path style=" stroke:none;fill-rule:nonzero;fill:rgb(16.862488%,16.862488%,16.470337%);fill-opacity:1;" d="M 417.164062 367.050781 C 415.917969 367.867188 414.691406 368.347656 413.398438 368.347656 C 411.332031 368.347656 410.109375 367.246094 409.773438 365.109375 L 417.355469 365.109375 C 417.355469 361.125 415.53125 359.179688 412.675781 359.179688 C 409.699219 359.179688 407.636719 361.386719 407.636719 364.652344 C 407.636719 367.628906 409.507812 370.386719 412.867188 370.386719 C 414.691406 370.386719 415.867188 369.980469 417.164062 369.117188 Z M 409.820312 363.691406 C 410.109375 361.988281 411.09375 361.027344 412.726562 361.027344 C 414.238281 361.027344 415.171875 362.058594 415.246094 363.691406 Z M 409.820312 363.691406 "/>
<path style=" stroke:none;fill-rule:nonzero;fill:rgb(16.862488%,16.862488%,16.470337%);fill-opacity:1;" d="M 419.566406 359.398438 L 419.566406 370.171875 L 421.699219 370.171875 L 421.699219 362.347656 C 422.589844 361.316406 423.308594 360.980469 424.390625 360.980469 C 425.445312 360.980469 426.332031 361.722656 426.332031 363.476562 L 426.332031 370.171875 L 428.46875 370.171875 L 428.46875 362.347656 C 429.238281 361.554688 430.171875 360.957031 430.867188 360.980469 C 432.09375 360.980469 433.101562 361.867188 433.101562 363.5 L 433.101562 370.171875 L 435.238281 370.171875 L 435.238281 363.40625 C 435.238281 360.859375 433.84375 359.179688 431.660156 359.179688 C 430.125 359.179688 428.996094 360.066406 428.0625 361.125 C 427.339844 359.851562 426.210938 359.179688 424.84375 359.179688 C 423.835938 359.179688 422.804688 359.707031 421.699219 360.8125 L 421.699219 359.398438 Z M 419.566406 359.398438 "/>
<path style=" stroke:none;fill-rule:nonzero;fill:rgb(16.862488%,16.862488%,16.470337%);fill-opacity:1;" d="M 446.515625 368.253906 C 446.035156 368.613281 445.605469 368.828125 445.390625 368.828125 C 445.125 368.828125 444.980469 368.683594 444.980469 368.277344 L 444.980469 362.730469 C 444.980469 360.285156 443.253906 359.179688 441.070312 359.179688 C 439.507812 359.179688 438.332031 359.660156 437.492188 360.644531 L 437.492188 362.972656 C 438.523438 361.75 439.726562 361.195312 440.902344 361.195312 C 442.195312 361.195312 442.84375 361.75 442.84375 363.09375 L 442.84375 363.667969 L 440.949219 364.339844 C 439.21875 364.964844 437.277344 365.613281 437.277344 367.75 C 437.277344 369.140625 438.332031 370.386719 439.917969 370.386719 C 440.902344 370.386719 441.882812 370.027344 442.820312 369.285156 C 443.011719 370.050781 443.515625 370.386719 444.453125 370.386719 C 445.125 370.386719 445.53125 370.195312 446.515625 369.546875 Z M 442.84375 367.988281 C 442.269531 368.539062 441.644531 368.875 440.972656 368.875 C 440.085938 368.875 439.4375 368.253906 439.4375 367.363281 C 439.4375 366.09375 441.019531 365.46875 442.84375 364.84375 Z M 442.84375 367.988281 "/>
<path style=" stroke:none;fill-rule:nonzero;fill:rgb(16.862488%,16.862488%,16.470337%);fill-opacity:1;" d="M 449.515625 367.507812 C 448.726562 367.507812 448.078125 368.15625 448.078125 368.949219 C 448.078125 369.742188 448.726562 370.386719 449.515625 370.386719 C 450.308594 370.386719 450.957031 369.742188 450.957031 368.949219 C 450.957031 368.15625 450.308594 367.507812 449.515625 367.507812 "/>
<path style=" stroke:none;fill-rule:nonzero;fill:rgb(16.862488%,16.862488%,16.470337%);fill-opacity:1;" d="M 461.589844 359.925781 C 460.558594 359.46875 459.71875 359.179688 458.46875 359.179688 C 455.203125 359.179688 453.140625 361.4375 453.140625 364.988281 C 453.140625 368.15625 455.398438 370.386719 458.613281 370.386719 C 459.742188 370.386719 461.109375 370.101562 461.828125 369.765625 L 461.828125 367.652344 C 460.75 368.132812 459.886719 368.371094 458.972656 368.371094 C 456.765625 368.371094 455.324219 367.027344 455.324219 364.796875 C 455.324219 362.613281 456.667969 361.148438 458.613281 361.148438 C 459.546875 361.148438 460.363281 361.386719 461.589844 362.203125 Z M 461.589844 359.925781 "/>
<path style=" stroke:none;fill-rule:nonzero;fill:rgb(16.862488%,16.862488%,16.470337%);fill-opacity:1;" d="M 469.222656 359.179688 C 466.003906 359.179688 463.53125 361.582031 463.53125 364.675781 C 463.53125 367.988281 465.910156 370.386719 469.222656 370.386719 C 472.675781 370.386719 475.054688 368.085938 475.054688 364.675781 C 475.054688 361.484375 472.605469 359.179688 469.222656 359.179688 Z M 469.195312 361.101562 C 471.332031 361.101562 472.867188 362.613281 472.867188 364.699219 C 472.867188 367.027344 471.453125 368.46875 469.195312 368.46875 C 467.132812 368.46875 465.71875 366.957031 465.71875 364.675781 C 465.71875 362.613281 467.179688 361.101562 469.195312 361.101562 "/>
<path style=" stroke:none;fill-rule:nonzero;fill:rgb(16.862488%,16.862488%,16.470337%);fill-opacity:1;" d="M 477.332031 359.398438 L 477.332031 370.171875 L 479.46875 370.171875 L 479.46875 362.347656 C 480.355469 361.316406 481.078125 360.980469 482.15625 360.980469 C 483.214844 360.980469 484.101562 361.722656 484.101562 363.476562 L 484.101562 370.171875 L 486.238281 370.171875 L 486.238281 362.347656 C 487.003906 361.554688 487.941406 360.957031 488.636719 360.980469 C 489.859375 360.980469 490.867188 361.867188 490.867188 363.5 L 490.867188 370.171875 L 493.003906 370.171875 L 493.003906 363.40625 C 493.003906 360.859375 491.613281 359.179688 489.429688 359.179688 C 487.894531 359.179688 486.765625 360.066406 485.828125 361.125 C 485.109375 359.851562 483.980469 359.179688 482.613281 359.179688 C 481.605469 359.179688 480.574219 359.707031 479.46875 360.8125 L 479.46875 359.398438 Z M 477.332031 359.398438 "/>
</g>
</svg>
